<svg width="103" height="52" viewBox="0 0 103 52" fill="none" xmlns="http://www.w3.org/2000/svg">
<circle cx="26" cy="26" r="26" fill="white"/>
<path d="M36.6066 27.1611C34.9729 25.7997 33.0283 24.7918 30.9066 24.1817C33.179 22.8775 34.6719 20.6947 34.6719 18.2266C34.6719 14.2418 30.7817 11 26 11C21.2183 11 17.3281 14.2418 17.3281 18.2266C17.3281 20.6947 18.821 22.8775 21.0935 24.1817C18.9718 24.7918 17.0272 25.7997 15.3934 27.1611C12.5603 29.5221 11 32.6611 11 36H13.3438C13.3438 30.1844 19.0213 25.4531 26 25.4531C32.9787 25.4531 38.6562 30.1844 38.6562 36H41C41 32.6611 39.4397 29.5221 36.6066 27.1611ZM26 23.5C22.5107 23.5 19.6719 21.1344 19.6719 18.2266C19.6719 15.3187 22.5107 12.9531 26 12.9531C29.4893 12.9531 32.3281 15.3187 32.3281 18.2266C32.3281 21.1344 29.4893 23.5 26 23.5Z" fill="#2E266F"/>
<circle cx="43.5" cy="7.5" r="7.5" fill="#31A24C"/>
<path d="M63.5839 31V19.64H64.9279V29.768H69.9839V31H63.5839ZM75.2293 31.24C74.6426 31.24 74.0986 31.1333 73.5973 30.92C73.1066 30.696 72.6746 30.392 72.3013 30.008C71.9386 29.6133 71.656 29.1493 71.4533 28.616C71.2506 28.0827 71.1493 27.5013 71.1493 26.872C71.1493 26.2427 71.2506 25.6613 71.4533 25.128C71.6666 24.5947 71.9546 24.136 72.3173 23.752C72.6906 23.3573 73.128 23.0533 73.6293 22.84C74.1306 22.616 74.6746 22.504 75.2613 22.504C75.848 22.504 76.3866 22.616 76.8773 22.84C77.3786 23.0533 77.8106 23.3573 78.1733 23.752C78.5466 24.136 78.8346 24.5947 79.0373 25.128C79.24 25.6613 79.3413 26.2427 79.3413 26.872C79.3413 27.5013 79.2346 28.0827 79.0213 28.616C78.8186 29.1493 78.5306 29.6133 78.1573 30.008C77.7946 30.392 77.3626 30.696 76.8613 30.92C76.36 31.1333 75.816 31.24 75.2293 31.24ZM75.2453 30.072C75.6506 30.072 76.0186 29.992 76.3493 29.832C76.6906 29.672 76.984 29.4533 77.2293 29.176C77.4853 28.888 77.6826 28.552 77.8213 28.168C77.96 27.7733 78.0293 27.3413 78.0293 26.872C78.0293 26.4027 77.96 25.976 77.8213 25.592C77.6826 25.1973 77.4853 24.8613 77.2293 24.584C76.984 24.296 76.6906 24.072 76.3493 23.912C76.0186 23.752 75.6506 23.672 75.2453 23.672C74.84 23.672 74.4666 23.752 74.1253 23.912C73.7946 24.072 73.5013 24.296 73.2453 24.584C73 24.8613 72.808 25.1973 72.6693 25.592C72.5306 25.976 72.4613 26.4027 72.4613 26.872C72.4613 27.3413 72.5306 27.7733 72.6693 28.168C72.808 28.552 73 28.888 73.2453 29.176C73.5013 29.4533 73.7946 29.672 74.1253 29.832C74.4666 29.992 74.84 30.072 75.2453 30.072ZM84.6452 30.92C84.1012 30.92 83.5945 30.8133 83.1252 30.6C82.6665 30.3867 82.2612 30.0933 81.9092 29.72C81.5679 29.336 81.3012 28.888 81.1092 28.376C80.9172 27.864 80.8212 27.3147 80.8212 26.728C80.8212 26.1307 80.9172 25.576 81.1092 25.064C81.3119 24.552 81.5892 24.104 81.9412 23.72C82.2932 23.336 82.7039 23.0373 83.1732 22.824C83.6532 22.6107 84.1652 22.504 84.7092 22.504C85.3385 22.504 85.9092 22.6533 86.4212 22.952C86.9439 23.2507 87.3492 23.6613 87.6372 24.184L87.7012 22.744H88.8532V30.296C88.8532 30.9253 88.7572 31.496 88.5652 32.008C88.3732 32.5307 88.1012 32.9787 87.7492 33.352C87.3972 33.7253 86.9759 34.008 86.4852 34.2C85.9945 34.4027 85.4505 34.504 84.8532 34.504C84.3305 34.504 83.8399 34.424 83.3812 34.264C82.9225 34.1147 82.5119 33.8907 82.1492 33.592C81.7972 33.304 81.5039 32.9573 81.2692 32.552L82.3412 32.008C82.6505 32.456 83.0132 32.7973 83.4292 33.032C83.8559 33.2773 84.3305 33.4 84.8532 33.4C85.4079 33.4 85.8879 33.272 86.2932 33.016C86.7092 32.7707 87.0239 32.4187 87.2372 31.96C87.4612 31.5013 87.5732 30.9627 87.5732 30.344V29.288C87.2745 29.8 86.8692 30.2 86.3572 30.488C85.8452 30.776 85.2745 30.92 84.6452 30.92ZM84.8692 29.752C85.2639 29.752 85.6265 29.6773 85.9572 29.528C86.2985 29.3787 86.5919 29.1707 86.8372 28.904C87.0825 28.6267 87.2692 28.3013 87.3972 27.928C87.5359 27.5547 87.6052 27.1493 87.6052 26.712C87.6052 26.2747 87.5359 25.8693 87.3972 25.496C87.2692 25.1227 87.0825 24.8027 86.8372 24.536C86.5919 24.2587 86.2985 24.0453 85.9572 23.896C85.6265 23.7467 85.2639 23.672 84.8692 23.672C84.4745 23.672 84.1065 23.7467 83.7652 23.896C83.4345 24.0453 83.1465 24.2587 82.9012 24.536C82.6559 24.8027 82.4639 25.1227 82.3252 25.496C82.1972 25.8693 82.1332 26.2747 82.1332 26.712C82.1332 27.1493 82.1972 27.5547 82.3252 27.928C82.4639 28.3013 82.6559 28.6267 82.9012 28.904C83.1465 29.1707 83.4345 29.3787 83.7652 29.528C84.1065 29.6773 84.4745 29.752 84.8692 29.752ZM92.6166 20.328C92.6166 20.488 92.5739 20.6373 92.4886 20.776C92.4139 20.904 92.3072 21.0107 92.1686 21.096C92.0406 21.1707 91.8966 21.208 91.7366 21.208C91.5766 21.208 91.4272 21.1707 91.2886 21.096C91.1606 21.0107 91.0539 20.904 90.9686 20.776C90.8939 20.6373 90.8566 20.488 90.8566 20.328C90.8566 20.168 90.8939 20.024 90.9686 19.896C91.0539 19.7573 91.1606 19.6507 91.2886 19.576C91.4272 19.4907 91.5766 19.448 91.7366 19.448C91.8966 19.448 92.0406 19.4907 92.1686 19.576C92.3072 19.6507 92.4139 19.7573 92.4886 19.896C92.5739 20.024 92.6166 20.168 92.6166 20.328ZM91.0966 31V22.744H92.3766V31H91.0966ZM94.6122 31V22.744H95.7642L95.8282 24.056C96.0735 23.5867 96.4255 23.2133 96.8842 22.936C97.3535 22.648 97.8922 22.504 98.5002 22.504C99.1295 22.504 99.6789 22.6533 100.148 22.952C100.618 23.2507 100.975 23.6773 101.22 24.232C101.476 24.776 101.604 25.4213 101.604 26.168V31H100.324V26.248C100.324 25.4267 100.143 24.792 99.7802 24.344C99.4282 23.896 98.9215 23.672 98.2602 23.672C97.8015 23.672 97.3909 23.7787 97.0282 23.992C96.6762 24.1947 96.3989 24.4827 96.1962 24.856C95.9935 25.2187 95.8922 25.6347 95.8922 26.104V31H94.6122Z" fill="white"/>
</svg>
